<svg width="65" height="32" viewBox="0 0 65 32" fill="none" xmlns="http://www.w3.org/2000/svg">
<path d="M10.23 0.634999C13.65 0.634999 16.605 1.28 19.095 2.57C21.615 3.83 23.535 5.645 24.855 8.015C26.205 10.385 26.88 13.175 26.88 16.385C26.88 19.595 26.205 22.385 24.855 24.755C23.535 27.095 21.615 28.895 19.095 30.155C16.605 31.385 13.65 32 10.23 32H0.465V0.634999H10.23ZM10.23 28.625C14.28 28.625 17.37 27.56 19.5 25.43C21.63 23.27 22.695 20.255 22.695 16.385C22.695 12.485 21.615 9.44 19.455 7.25C17.325 5.06 14.25 3.965 10.23 3.965H4.56V28.625H10.23ZM64.0964 0.859999V32H60.0014V8.78L49.6514 32H46.7714L36.3764 8.735V32H32.2814V0.859999H36.6914L48.2114 26.6L59.7314 0.859999H64.0964Z" fill="#A65DCA"/>
</svg>
